<svg width="35" height="34" viewBox="0 0 35 34" fill="none" xmlns="http://www.w3.org/2000/svg">
<path d="M17.0506 0C7.63014 0 0 7.63014 0 17.0506C0 24.5955 4.88073 30.9681 11.6583 33.2273C12.5109 33.3765 12.8306 32.865 12.8306 32.4174C12.8306 32.0125 12.8093 30.6697 12.8093 29.2418C8.5253 30.0303 7.41701 28.1974 7.07599 27.2383C6.88417 26.7481 6.05296 25.2349 5.32831 24.8299C4.73154 24.5102 3.87901 23.7216 5.307 23.7003C6.64973 23.679 7.60883 24.9365 7.92852 25.448C9.46308 28.0269 11.9141 27.3023 12.8945 26.8547C13.0437 25.7464 13.4913 25.0004 13.9815 24.5742C10.1877 24.1479 6.22346 22.6773 6.22346 16.1554C6.22346 14.3012 6.88418 12.7666 7.97115 11.5731C7.80064 11.1468 7.20387 9.39914 8.14166 7.05468C8.14166 7.05468 9.56964 6.6071 12.8306 8.80237C14.1946 8.41873 15.6439 8.22691 17.0932 8.22691C18.5425 8.22691 19.9918 8.41873 21.3559 8.80237C24.6168 6.58579 26.0448 7.05468 26.0448 7.05468C26.9826 9.39914 26.3858 11.1468 26.2153 11.5731C27.3023 12.7666 27.963 14.2799 27.963 16.1554C27.963 22.6986 23.9774 24.1479 20.1836 24.5742C20.8017 25.107 21.3345 26.13 21.3345 27.7285C21.3345 30.009 21.3132 31.842 21.3132 32.4174C21.3132 32.865 21.6329 33.3978 22.4855 33.2273C25.8705 32.0849 28.812 29.9096 30.8957 27.0076C32.9795 24.1056 34.1006 20.6232 34.1012 17.0506C34.1012 7.63014 26.471 0 17.0506 0Z" fill="white"/>
</svg>
