<?xml version="1.0" encoding="utf-8"?>
<!-- Generator: Adobe Illustrator 19.0.0, SVG Export Plug-In . SVG Version: 6.00 Build 0)  -->
<svg version="1.1" id="Capa_1" xmlns="http://www.w3.org/2000/svg" xmlns:xlink="http://www.w3.org/1999/xlink" x="0px" y="0px"
	 viewBox="-409 148.8 204.2 204.2" style="enable-background:new -409 148.8 204.2 204.2;" xml:space="preserve">
<style type="text/css">
	.st0{fill:#FF003D;}
</style>
<path class="st0" d="M-404.4,330.5h195c2.5,0,4.6-2.1,4.6-4.6v-4.1c0-0.1,0-0.1,0-0.2c0-0.8-0.2-1.5-0.5-2.1l-19.9-50.2v-93.4
	c0-2.5-2.1-4.6-4.6-4.6H-384c-2.5,0-4.6,2.1-4.6,4.6v93.4l-20.1,50.6c-0.1,0.2-0.2,0.5-0.2,0.7c0,0.1,0,0.1,0,0.2
	c-0.1,0.3-0.1,0.5-0.1,0.8c0,0,0,0,0,0v4.3C-409,328.4-406.9,330.5-404.4,330.5z M-326.7,315.6l4.2-13h31.1l4.2,13H-326.7z
	 M-375.1,183h136.4v80h-136.4V183z"/>
</svg>
