<svg width="29" height="29" viewBox="0 0 29 29" fill="none" xmlns="http://www.w3.org/2000/svg">
<path fill-rule="evenodd" clip-rule="evenodd" d="M3.58624e-07 2.42282C3.58624e-07 1.78025 0.255261 1.164 0.709627 0.70963C1.16399 0.255264 1.78025 3.22996e-06 2.42282 3.22996e-06H26.5745C26.893 -0.000516861 27.2084 0.0617771 27.5027 0.183318C27.7971 0.30486 28.0645 0.483262 28.2898 0.70831C28.5151 0.933359 28.6938 1.20063 28.8157 1.49483C28.9375 1.78903 29.0002 2.10438 29 2.42282V26.5745C29.0003 26.893 28.9379 27.2085 28.8162 27.5028C28.6945 27.7972 28.516 28.0646 28.2908 28.2899C28.0657 28.5152 27.7983 28.6939 27.504 28.8157C27.2098 28.9375 26.8944 29.0002 26.5759 29H2.42282C2.10454 29 1.78938 28.9373 1.49534 28.8154C1.20131 28.6936 0.934158 28.515 0.709161 28.2899C0.484164 28.0648 0.305728 27.7975 0.184048 27.5034C0.0623675 27.2093 -0.000172808 26.8941 3.58624e-07 26.5759V2.42282ZM11.4787 11.0569H15.4056V13.0289C15.9724 11.8953 17.4224 10.875 19.6014 10.875C23.7787 10.875 24.7686 13.133 24.7686 17.2761V24.9505H20.5412V18.2199C20.5412 15.8604 19.9744 14.529 18.535 14.529C16.5379 14.529 15.7075 15.9645 15.7075 18.2199V24.9505H11.4787V11.0569ZM4.22873 24.77H8.45745V10.875H4.22873V24.7686V24.77ZM9.0625 6.34309C9.07047 6.70516 9.00605 7.06518 8.873 7.40201C8.73995 7.73884 8.54096 8.0457 8.28771 8.30459C8.03447 8.56348 7.73206 8.76917 7.39824 8.9096C7.06442 9.05003 6.70591 9.12237 6.34375 9.12237C5.98159 9.12237 5.62309 9.05003 5.28926 8.9096C4.95544 8.76917 4.65303 8.56348 4.39979 8.30459C4.14654 8.0457 3.94755 7.73884 3.8145 7.40201C3.68145 7.06518 3.61703 6.70516 3.625 6.34309C3.64065 5.6324 3.93396 4.95609 4.44212 4.459C4.95028 3.96191 5.63289 3.68355 6.34375 3.68355C7.05461 3.68355 7.73722 3.96191 8.24538 4.459C8.75354 4.95609 9.04685 5.6324 9.0625 6.34309Z" fill="white"/>
</svg>
