<?xml version="1.0" encoding="utf-8"?>
<!-- Generator: Adobe Illustrator 19.0.0, SVG Export Plug-In . SVG Version: 6.00 Build 0)  -->
<svg version="1.1" id="Capa_1" xmlns="http://www.w3.org/2000/svg" xmlns:xlink="http://www.w3.org/1999/xlink" x="0px" y="0px"
	 viewBox="-454.3 206.8 72.3 72.3" style="enable-background:new -454.3 206.8 72.3 72.3;" xml:space="preserve">
<style type="text/css">
	.st0{fill:#FF003D;}
</style>
<g>
	<path class="st0" d="M-448.4,221.1c2.3-4.6,10.7-8.7,17-2.2c6.3,6.4-0.3,18.4-7.8,29c12-4.8,23.8-18.5,27.2-21.4
		c3.2-2.8,6.2,1.6,5.7,3.2c-2.6,8-8.2,20.9-14.4,31.6c12.3-6.5,25.7-23.9,30.1-28.1c2.8-2.7,6.1,1.6,5.5,3.2
		c-4.2,11.4-4.2,17.7-4.5,18.9c-0.5,2-8.1,1.3-5.3-6.5c-11.4,14.5-25.2,23.7-31.3,18.4c-6.9-6.1,1.2-14.7,5.7-23.1
		c-7.5,6.6-17.1,15.3-24.3,8.9c-7.1-6.3,11.4-22.3,7.1-28.9c-1-1.6-3.4-2.2-5.6-0.6c-1.7,1.2-2.3,2.9-3.2,3
		C-449,226.8-449.5,223.4-448.4,221.1z"/>
</g>
</svg>
