<?xml version="1.0" encoding="utf-8"?>
<!-- Generator: Adobe Illustrator 19.0.0, SVG Export Plug-In . SVG Version: 6.00 Build 0)  -->
<svg version="1.1" id="Capa_1" xmlns="http://www.w3.org/2000/svg" xmlns:xlink="http://www.w3.org/1999/xlink" x="0px" y="0px"
	 viewBox="-295 35 432 432" style="enable-background:new -295 35 432 432;" xml:space="preserve">
<style type="text/css">
	.st0{fill:#FF003D;}
</style>
<g>
	<path class="st0" d="M128.3,86.8c-0.8-2-2.7-3.5-4.9-3.8c-2.2-0.3-4.3,0.7-5.6,2.5c-7.6,10.6-17.5,14.2-29.1,18.3
		c-9.3,3.3-18.9,6.7-29.3,14.2c-14.7,10.5-21.4,24.9-18.1,38.5L41,157c-6.1-8.9-12.8-17.1-19.8-24.5c-32.9-34.4-79-55-126.3-56.7
		c-2.1-0.1-4.2-0.1-6.3-0.1c-52.8,0-103.4,23.6-138.8,64.8c-35.2,41-50.7,94.3-42.8,146.3c0.7,4.3,1.5,8.7,2.5,13.1
		c13,57.2,46.2,100.7,91.1,119.4c11.1,4.6,22.2,6.9,33.2,6.9c27.2,0,50.9-14.5,65.1-39.9c5.4-9.6,8.9-19.6,10.4-29.7
		c0.9-5.9,0.3-11.8-0.3-17.6c-0.6-5.9-1.1-11.5-0.3-17.1c2-12.9,11-20.6,24-20.6c3.7,0,7.5,0.6,11.3,1.8c-4.4,8.1-8.4,15.9-11.9,23
		c-7.4,15.2-12.6,27.8-15.3,37.4c-1.7,5.9-6.1,21.7,4.7,29.2c3.4,2.4,7.7,3.2,12.2,2.4c4-0.8,16.4-3,51.4-42.9
		c9.4-10.7,19.5-23.1,30.1-36.8c27.2-9.1,48.3-31.9,53.9-58.1c1.4-6.5,2-13.5,1.7-20.8C81,221,89.9,206.4,98.9,190.6
		c0.2-0.3,0.3-0.6,0.5-1c13-3.6,24.3-13.7,30.8-27.9C139.9,141,139.2,114.4,128.3,86.8z M-18.6,184.8c-4.7,7.5-12.8,12-21.7,12
		c-4.8,0-9.5-1.4-13.6-3.9c-5.8-3.6-9.8-9.3-11.3-16s-0.3-13.5,3.3-19.3c4.7-7.5,12.8-12,21.7-12c4.8,0,9.5,1.4,13.6,3.9
		c5.8,3.6,9.8,9.3,11.3,16C-13.8,172.2-15,179.1-18.6,184.8z M14.6,231.2c12.9-19.1,26.6-38,39.6-54.8c2.1,1.9,4.5,3.8,7,5.5
		c4.2,2.9,8.6,5.2,13.2,6.8c-11,18.8-22.8,37.3-37,58.4c-23.5,34.6-47.9,66.7-68.7,90.4C-43,350.7-53.2,360.9-61,367.3
		c3-9.7,8.8-23,16.9-38.7C-29.8,300.4-8.9,265.8,14.6,231.2z M-212.5,231c-4.8,0-9.5-1.4-13.6-3.9c-5.8-3.6-9.8-9.3-11.3-16
		c-1.5-6.7-0.3-13.5,3.3-19.3c4.7-7.5,12.8-12,21.7-12c4.8,0,9.5,1.4,13.6,3.9c11.9,7.5,15.5,23.3,8,35.3
		C-195.5,226.6-203.6,231-212.5,231z M-239.3,287.4c4.7-7.5,12.8-12,21.7-12c4.8,0,9.5,1.4,13.6,3.9c5.8,3.6,9.8,9.3,11.3,16
		c1.5,6.7,0.3,13.5-3.3,19.3c-4.7,7.5-12.8,12-21.7,12c-4.8,0-9.5-1.4-13.6-3.9c-5.8-3.6-9.8-9.3-11.3-16
		C-244.1,300-243,293.2-239.3,287.4z M-157.4,135.4c4.7-7.5,12.8-12,21.7-12c4.8,0,9.5,1.4,13.6,3.9c11.9,7.5,15.5,23.3,8,35.3
		c-4.7,7.5-12.8,12-21.7,12c-4.8,0-9.5-1.4-13.6-3.9c-5.8-3.6-9.8-9.3-11.3-16C-162.2,148.1-161,141.2-157.4,135.4z"/>
</g>
</svg>
