<?xml version="1.0" encoding="utf-8"?>
<!-- Generator: Adobe Illustrator 19.0.0, SVG Export Plug-In . SVG Version: 6.00 Build 0)  -->
<svg version="1.1" id="Layer_1" xmlns="http://www.w3.org/2000/svg" xmlns:xlink="http://www.w3.org/1999/xlink" x="0px" y="0px"
	 viewBox="-259 -1.6 503.6 503.6" style="enable-background:new -259 -1.6 503.6 503.6;" xml:space="preserve">
<style type="text/css">
	.st0{fill:#FF003D;}
</style>
<g>
	<g>
		<path class="st0" d="M78.3-1.6H-91.8c-28.9,0-53.5,23.6-53.5,52.5v398.7c0,28.9,24.1,52.4,53,52.4l170.4-0.2
			c28.9,0,52.6-23.5,52.6-52.4l0.2-398.5C130.9,21.8,107.4-1.6,78.3-1.6z M-31.3,29.9H18c4.3,0,7.9,3.5,7.9,7.9s-3.5,7.9-7.9,7.9
			h-49.4c-4.3,0-7.9-3.5-7.9-7.9C-39.2,33.4-35.7,29.9-31.3,29.9z M-61,32.4c2.9-2.9,8.2-3,11.1,0c1.5,1.5,2.3,3.5,2.3,5.6
			c0,2-0.9,4.1-2.3,5.5c-1.5,1.5-3.5,2.3-5.5,2.3c-2.1,0-4.1-0.9-5.6-2.3c-1.5-1.5-2.3-3.5-2.3-5.5C-63.3,35.9-62.4,33.8-61,32.4z
			 M-8.2,486.4c-13,0-23.5-10.6-23.5-23.5c0-13,10.6-23.5,23.5-23.5s23.5,10.6,23.5,23.5C15.3,475.8,4.8,486.4-8.2,486.4z
			 M106.5,423.3h-224.3V73.2h224.3L106.5,423.3L106.5,423.3z"/>
	</g>
</g>
</svg>
